<svg width="237" height="38" viewBox="0 0 237 38" fill="none" xmlns="http://www.w3.org/2000/svg">
<path d="M30.4541 10.6846C31.876 12.1784 32.5894 14.256 32.5894 16.9173V28.527H26.6895V17.7335C26.6895 16.4523 26.3617 15.4581 25.7014 14.7606C25.041 14.0582 24.1348 13.7119 22.9779 13.7119C21.8211 13.7119 20.9149 14.0631 20.2545 14.7606C19.5941 15.463 19.2664 16.4523 19.2664 17.7335V28.527H13.3664V17.7335C13.3664 16.4523 13.0387 15.4581 12.3783 14.7606C11.7179 14.0582 10.8117 13.7119 9.65488 13.7119C8.49803 13.7119 7.59183 14.0631 6.93146 14.7606C6.27109 15.463 5.94332 16.4523 5.94332 17.7335V28.527H0V8.65644H5.93368V11.1495C6.5362 10.3185 7.3219 9.6606 8.29558 9.17089C9.26926 8.68612 10.3683 8.43878 11.5926 8.43878C13.0483 8.43878 14.3498 8.76032 15.497 9.39843C16.6442 10.0365 17.5407 10.9517 18.1866 12.1389C18.8567 11.0457 19.7725 10.1553 20.9293 9.46768C22.0862 8.7801 23.3491 8.43384 24.7132 8.43384C27.1185 8.43384 29.0321 9.18078 30.4589 10.6796L30.4541 10.6846Z" fill="#231F20"/>
<path d="M42.6878 2.17139V28.527H36.7542V2.17139H42.6878Z" fill="#231F20"/>
<path d="M46.9392 13.1778C47.6912 11.6344 48.713 10.4472 50.0097 9.61618C51.3063 8.78515 52.7524 8.36963 54.3479 8.36963C55.712 8.36963 56.9122 8.65653 57.9389 9.2254C58.9656 9.79426 59.761 10.5412 60.3153 11.4712V8.65653H66.249V28.5321H60.3153V25.7175C59.7369 26.6425 58.9319 27.3894 57.9052 27.9632C56.8737 28.5321 55.6782 28.819 54.3141 28.819C52.7427 28.819 51.3063 28.3985 50.0097 27.5527C48.713 26.7117 47.6912 25.5097 46.9392 23.9565C46.1873 22.4032 45.8113 20.6026 45.8113 18.5597C45.8113 16.5167 46.1873 14.726 46.9392 13.1827V13.1778ZM59.0861 14.9932C58.2619 14.1127 57.2641 13.6774 56.0831 13.6774C54.9022 13.6774 53.9044 14.1127 53.0802 14.9783C52.2559 15.844 51.8462 17.0411 51.8462 18.5597C51.8462 20.0783 52.2559 21.2853 53.0802 22.1757C53.8996 23.0661 54.9022 23.5113 56.0831 23.5113C57.2641 23.5113 58.2619 23.071 59.0861 22.1955C59.9056 21.315 60.3201 20.1179 60.3201 18.5993C60.3201 17.0806 59.9104 15.8786 59.0861 15.0031V14.9932Z" fill="#231F20"/>
<path d="M70.5052 13.1776C71.2571 11.6343 72.279 10.4471 73.5757 9.61606C74.8723 8.78503 76.3184 8.36951 77.9138 8.36951C79.1864 8.36951 80.3481 8.64158 81.4037 9.19065C82.4545 9.73973 83.2836 10.4718 83.8861 11.3968V2.17139H89.8198V28.527H83.8861V25.6778C83.3318 26.6275 82.5364 27.3893 81.5097 27.9582C80.4782 28.527 79.2828 28.8139 77.9187 28.8139C76.3232 28.8139 74.8771 28.3935 73.5805 27.5476C72.2838 26.7067 71.262 25.5046 70.51 23.9514C69.7581 22.3981 69.3821 20.5976 69.3821 18.5546C69.3821 16.5117 69.7581 14.721 70.51 13.1776H70.5052ZM82.6521 14.993C81.8279 14.1125 80.8301 13.6772 79.6491 13.6772C78.4682 13.6772 77.4704 14.1125 76.6461 14.9782C75.8219 15.8439 75.4122 17.041 75.4122 18.5596C75.4122 20.0782 75.8219 21.2852 76.6461 22.1756C77.4656 23.0659 78.4682 23.5111 79.6491 23.5111C80.8301 23.5111 81.8279 23.0709 82.6521 22.1953C83.4715 21.3148 83.8861 20.1178 83.8861 18.5991C83.8861 17.0805 83.4764 15.8785 82.6521 15.0029V14.993Z" fill="#231F20"/>
<path d="M112.272 20.0535H98.8432C98.9348 21.2902 99.3253 22.235 100.005 22.883C100.689 23.5359 101.528 23.8624 102.521 23.8624C104.001 23.8624 105.032 23.2193 105.611 21.9382H111.925C111.602 23.2441 111.019 24.4214 110.171 25.4651C109.327 26.5089 108.267 27.33 106.994 27.9236C105.722 28.5172 104.3 28.814 102.724 28.814C100.824 28.814 99.1373 28.3985 97.6575 27.5674C96.1777 26.7364 95.0208 25.5492 94.1869 24.0059C93.353 22.4625 92.9385 20.657 92.9385 18.5942C92.9385 16.5315 93.3482 14.726 94.1724 13.1826C94.9919 11.6393 96.1439 10.4521 97.6237 9.62106C99.1035 8.79003 100.805 8.37451 102.724 8.37451C104.642 8.37451 106.262 8.78013 107.722 9.58644C109.178 10.3927 110.32 11.5453 111.14 13.0392C111.959 14.5331 112.374 16.2792 112.374 18.2727C112.374 18.8416 112.34 19.4352 112.268 20.0535H112.272ZM106.305 16.67C106.305 15.6263 105.958 14.7952 105.264 14.1769C104.57 13.5586 103.702 13.2519 102.661 13.2519C101.62 13.2519 100.829 13.5487 100.145 14.1423C99.4602 14.7359 99.0409 15.5768 98.877 16.67H106.305Z" fill="#231F20"/>
<path d="M118.447 6.58873C119.464 6.58873 120.303 6.27214 120.963 5.64392C121.623 5.0157 121.951 4.23908 121.951 3.30911C121.951 2.37915 121.623 1.5679 120.963 0.939679C120.303 0.311457 119.464 -0.00512695 118.447 -0.00512695C117.43 -0.00512695 116.557 0.311457 115.897 0.939679C115.237 1.5679 114.909 2.35936 114.909 3.30911C114.909 4.25887 115.237 5.0157 115.897 5.64392C116.557 6.27214 117.406 6.58873 118.447 6.58873Z" fill="#6553C9"/>
<path d="M115.497 31.1637C115.497 31.7572 115.357 32.1827 115.083 32.4448C114.803 32.707 114.34 32.8356 113.694 32.8356H112.272V37.9999H114.596C116.745 37.9999 118.423 37.4607 119.628 36.3774C120.833 35.299 121.431 33.5331 121.431 31.0895V8.65649H115.497V31.1637Z" fill="#231F20"/>
<path d="M129.398 27.5675C127.885 26.7365 126.689 25.5493 125.822 24.0059C124.954 22.4626 124.52 20.6571 124.52 18.5943C124.52 16.5316 124.959 14.7557 125.841 13.1975C126.718 11.6443 127.923 10.4472 129.451 9.61618C130.979 8.78515 132.691 8.36963 134.59 8.36963C136.489 8.36963 138.2 8.78515 139.728 9.61618C141.256 10.4472 142.456 11.6394 143.338 13.1975C144.216 14.7508 144.659 16.5514 144.659 18.5943C144.659 20.6373 144.216 22.4329 143.324 23.9911C142.432 25.5443 141.218 26.7414 139.68 27.5724C138.142 28.4035 136.421 28.819 134.527 28.819C132.633 28.819 130.922 28.4035 129.408 27.5724L129.398 27.5675ZM137.414 22.2598C138.215 21.404 138.61 20.1822 138.61 18.5894C138.61 16.9965 138.224 15.7747 137.448 14.919C136.672 14.0632 135.718 13.6378 134.585 13.6378C133.452 13.6378 132.469 14.0583 131.703 14.9041C130.941 15.7451 130.555 16.9768 130.555 18.5894C130.555 20.202 130.931 21.404 131.683 22.2598C132.435 23.1155 133.38 23.5409 134.513 23.5409C135.645 23.5409 136.614 23.1155 137.41 22.2598H137.414Z" fill="#231F20"/>
<path d="M156.522 22.8286L160.72 8.65161H167.035L160.161 28.5272H152.839L145.966 8.65161H152.319L156.517 22.8286H156.522Z" fill="#231F20"/>
<path d="M172.901 27.9237C171.58 27.3301 170.539 26.5189 169.777 25.485C169.016 24.4512 168.587 23.2937 168.495 22.0125H174.361C174.429 22.7001 174.742 23.259 175.297 23.6845C175.851 24.1099 176.535 24.3275 177.345 24.3275C178.087 24.3275 178.656 24.1791 179.061 23.8823C179.466 23.5855 179.668 23.1997 179.668 22.7248C179.668 22.1559 179.379 21.7355 178.801 21.4585C178.222 21.1864 177.287 20.8847 175.991 20.5483C174.602 20.2169 173.446 19.8657 172.52 19.4996C171.595 19.1336 170.794 18.5499 170.124 17.7534C169.454 16.957 169.117 15.8836 169.117 14.5282C169.117 13.3905 169.426 12.3517 170.038 11.4119C170.65 10.472 171.551 9.73496 172.747 9.18589C173.937 8.64176 175.354 8.36475 176.998 8.36475C179.427 8.36475 181.341 8.98307 182.744 10.2148C184.146 11.4465 184.947 13.0888 185.154 15.1317H179.668C179.577 14.4442 179.283 13.8951 178.782 13.4944C178.28 13.0937 177.63 12.8909 176.82 12.8909C176.126 12.8909 175.595 13.0294 175.224 13.3015C174.853 13.5735 174.67 13.9495 174.67 14.4244C174.67 14.9932 174.964 15.4236 175.557 15.7055C176.145 15.9924 177.066 16.2744 178.314 16.5613C179.75 16.9422 180.917 17.3132 181.818 17.6842C182.72 18.0552 183.515 18.6438 184.195 19.465C184.879 20.2861 185.231 21.3843 185.255 22.7594C185.255 23.9219 184.937 24.9607 184.301 25.8758C183.664 26.7909 182.749 27.5082 181.558 28.0325C180.367 28.5519 178.984 28.8141 177.413 28.8141C175.726 28.8141 174.222 28.5173 172.901 27.9237Z" fill="#231F20"/>
<path d="M200.733 28.527L194.833 20.192V28.527H188.899V2.17139H194.833V16.7392L200.699 8.65642H208.021L199.971 18.6288L208.093 28.532H200.738L200.733 28.527Z" fill="#231F20"/>
<path d="M230.131 8.65649L217.984 37.9702H211.598L216.042 27.8544L208.166 8.65649H214.793L219.271 21.0874L223.716 8.65649H230.136H230.131Z" fill="#231F20"/>
<path d="M230.946 27.8692C230.285 27.2409 229.958 26.4643 229.958 25.5343C229.958 24.6044 230.285 23.7882 230.946 23.1501C231.606 22.507 232.455 22.1904 233.496 22.1904C234.537 22.1904 235.351 22.512 236.012 23.1501C236.672 23.7931 237 24.5846 237 25.5343C237 26.4841 236.672 27.236 236.012 27.8692C235.351 28.4974 234.513 28.814 233.496 28.814C232.479 28.814 231.606 28.4974 230.946 27.8692Z" fill="#6553C9"/>
</svg>
