<svg width="187" height="30" viewBox="0 0 187 30" fill="none" xmlns="http://www.w3.org/2000/svg">
<g clip-path="url(#clip0_1070_211)">
<path d="M23.9863 8.43533C25.1063 9.61471 25.6682 11.2549 25.6682 13.3559V22.5215H21.0213V14.0003C21.0213 12.9888 20.7631 12.2039 20.243 11.6532C19.7229 11.0987 19.0091 10.8253 18.098 10.8253C17.1868 10.8253 16.473 11.1026 15.9529 11.6532C15.4328 12.2078 15.1746 12.9888 15.1746 14.0003V22.5215H10.5277V14.0003C10.5277 12.9888 10.2696 12.2039 9.74943 11.6532C9.22931 11.0987 8.51557 10.8253 7.60441 10.8253C6.69324 10.8253 5.9795 11.1026 5.45938 11.6532C4.93926 12.2078 4.68109 12.9888 4.68109 14.0003V22.5215H0V6.83418H4.6735V8.80242C5.14806 8.14634 5.76689 7.62695 6.53379 7.24033C7.30068 6.85761 8.16629 6.66235 9.1306 6.66235C10.2771 6.66235 11.3022 6.91619 12.2058 7.41997C13.1093 7.92374 13.8155 8.64621 14.3242 9.58347C14.8519 8.72041 15.5733 8.01747 16.4844 7.47464C17.3956 6.93181 18.3903 6.65845 19.4647 6.65845C21.3592 6.65845 22.8664 7.24814 23.9901 8.43142L23.9863 8.43533Z" fill="#131313"/>
<path d="M33.6227 1.71442V22.5215H28.9492V1.71442H33.6227Z" fill="#131313"/>
<path d="M36.9704 10.4036C37.5627 9.18512 38.3675 8.24786 39.3888 7.59178C40.41 6.93571 41.549 6.60767 42.8056 6.60767C43.8801 6.60767 44.8254 6.83417 45.634 7.28327C46.4427 7.73237 47.0691 8.32206 47.5057 9.05625V6.83417H52.1792V22.5254H47.5057V20.3033C47.0501 21.0336 46.4161 21.6233 45.6075 22.0763C44.795 22.5254 43.8535 22.7519 42.7791 22.7519C41.5414 22.7519 40.41 22.42 39.3888 21.7522C38.3675 21.0883 37.5627 20.1393 36.9704 18.9131C36.3782 17.6868 36.082 16.2653 36.082 14.6524C36.082 13.0396 36.3782 11.6259 36.9704 10.4075V10.4036ZM46.5376 11.8368C45.8884 11.1416 45.1025 10.798 44.1724 10.798C43.2422 10.798 42.4564 11.1416 41.8072 11.8251C41.158 12.5085 40.8353 13.4535 40.8353 14.6524C40.8353 15.8514 41.158 16.8042 41.8072 17.5072C42.4526 18.2101 43.2422 18.5616 44.1724 18.5616C45.1025 18.5616 45.8884 18.214 46.5376 17.5228C47.183 16.8277 47.5095 15.8826 47.5095 14.6837C47.5095 13.4848 47.1868 12.5358 46.5376 11.8446V11.8368Z" fill="#131313"/>
<path d="M55.5311 10.4036C56.1233 9.18513 56.9282 8.24787 57.9494 7.59179C58.9707 6.93571 60.1097 6.60767 61.3663 6.60767C62.3686 6.60767 63.2835 6.82246 64.115 7.25594C64.9426 7.68942 65.5956 8.2674 66.0702 8.99768V1.71442H70.7437V22.5215H66.0702V20.2721C65.6336 21.0219 65.0072 21.6233 64.1985 22.0724C63.386 22.5215 62.4445 22.748 61.3701 22.748C60.1135 22.748 58.9745 22.4161 57.9532 21.7483C56.932 21.0844 56.1271 20.1354 55.5349 18.9092C54.9426 17.6829 54.6465 16.2614 54.6465 14.6485C54.6465 13.0357 54.9426 11.622 55.5349 10.4036H55.5311ZM65.0983 11.8368C64.4491 11.1416 63.6632 10.798 62.733 10.798C61.8029 10.798 61.017 11.1416 60.3678 11.8251C59.7186 12.5085 59.3959 13.4535 59.3959 14.6525C59.3959 15.8514 59.7186 16.8042 60.3678 17.5072C61.0132 18.2101 61.8029 18.5616 62.733 18.5616C63.6632 18.5616 64.4491 18.214 65.0983 17.5228C65.7437 16.8277 66.0702 15.8826 66.0702 14.6837C66.0702 13.4848 65.7475 12.5358 65.0983 11.8446V11.8368Z" fill="#131313"/>
<path d="M88.429 15.8318H77.8519C77.924 16.8081 78.2315 17.554 78.7669 18.0656C79.306 18.5811 79.9665 18.8389 80.7486 18.8389C81.9142 18.8389 82.7266 18.3312 83.1822 17.3197H88.1556C87.9012 18.3507 87.4419 19.2801 86.7737 20.1042C86.1093 20.9282 85.2741 21.5764 84.2718 22.0451C83.2695 22.5137 82.1495 22.748 80.9081 22.748C79.4123 22.748 78.0835 22.42 76.918 21.7639C75.7524 21.1078 74.8413 20.1705 74.1845 18.9521C73.5277 17.7337 73.2012 16.3083 73.2012 14.6798C73.2012 13.0513 73.5239 11.6259 74.1731 10.4075C74.8185 9.18903 75.7258 8.25177 76.8914 7.59569C78.0569 6.93961 79.3971 6.61157 80.9081 6.61157C82.4191 6.61157 83.6947 6.9318 84.8451 7.56835C85.9916 8.20491 86.8914 9.11483 87.5368 10.2942C88.1822 11.4736 88.5087 12.8521 88.5087 14.4259C88.5087 14.875 88.4821 15.3437 88.4252 15.8318H88.429ZM83.7289 13.1606C83.7289 12.3366 83.4555 11.6806 82.9088 11.1924C82.3621 10.7043 81.6788 10.4621 80.8587 10.4621C80.0387 10.4621 79.4161 10.6964 78.8769 11.1651C78.3378 11.6337 78.0076 12.2976 77.8785 13.1606H83.7289Z" fill="#131313"/>
<path d="M93.2925 5.20177C94.0936 5.20177 94.7541 4.95183 95.2743 4.45587C95.7944 3.9599 96.0526 3.34678 96.0526 2.6126C96.0526 1.87842 95.7944 1.23796 95.2743 0.741993C94.7541 0.246029 94.0936 -0.00390625 93.2925 -0.00390625C92.4914 -0.00390625 91.8043 0.246029 91.2841 0.741993C90.764 1.23796 90.5059 1.8628 90.5059 2.6126C90.5059 3.3624 90.764 3.9599 91.2841 4.45587C91.8043 4.95183 92.4724 5.20177 93.2925 5.20177Z" fill="#6553C9"/>
<path d="M90.9676 24.603C90.9676 25.0716 90.8575 25.4075 90.6411 25.6144C90.4209 25.8214 90.0564 25.9229 89.5477 25.9229H88.4277V30H90.2577C91.9509 30 93.2721 29.5743 94.2212 28.7191C95.1703 27.8678 95.6411 26.4736 95.6411 24.5444V6.83417H90.9676V24.603Z" fill="#131313"/>
<path d="M101.916 21.7639C100.724 21.1078 99.7827 20.1705 99.0993 18.9521C98.4159 17.7337 98.0742 16.3083 98.0742 14.6798C98.0742 13.0513 98.4197 11.6493 99.1145 10.4192C99.8054 9.19293 100.755 8.24786 101.958 7.59178C103.162 6.93571 104.509 6.60767 106.005 6.60767C107.501 6.60767 108.849 6.93571 110.052 7.59178C111.256 8.24786 112.201 9.18903 112.896 10.4192C113.587 11.6454 113.936 13.0669 113.936 14.6798C113.936 16.2926 113.587 17.7102 112.884 18.9404C112.182 20.1666 111.225 21.1117 110.014 21.7678C108.803 22.4239 107.448 22.7519 105.956 22.7519C104.464 22.7519 103.116 22.4239 101.924 21.7678L101.916 21.7639ZM108.23 17.5736C108.86 16.898 109.171 15.9334 109.171 14.6759C109.171 13.4184 108.868 12.4538 108.256 11.7782C107.645 11.1026 106.894 10.7667 106.001 10.7667C105.109 10.7667 104.335 11.0987 103.731 11.7665C103.131 12.4304 102.827 13.4028 102.827 14.6759C102.827 15.949 103.124 16.898 103.716 17.5736C104.308 18.2492 105.052 18.585 105.944 18.585C106.837 18.585 107.6 18.2492 108.226 17.5736H108.23Z" fill="#131313"/>
<path d="M123.281 18.0227L126.588 6.83026H131.561L126.148 22.5215H120.381L114.967 6.83026H119.971L123.277 18.0227H123.281Z" fill="#131313"/>
<path d="M136.181 22.045C135.141 21.5764 134.321 20.936 133.721 20.1198C133.121 19.3036 132.783 18.3898 132.711 17.3783H137.331C137.384 17.9211 137.631 18.3624 138.068 18.6983C138.504 19.0341 139.044 19.2059 139.681 19.2059C140.266 19.2059 140.714 19.0888 141.033 18.8545C141.352 18.6202 141.511 18.3156 141.511 17.9406C141.511 17.4915 141.283 17.1596 140.828 16.9409C140.372 16.7261 139.636 16.4879 138.615 16.2223C137.521 15.9607 136.61 15.6834 135.881 15.3944C135.152 15.1055 134.522 14.6446 133.994 14.0159C133.466 13.3871 133.201 12.5397 133.201 11.4697C133.201 10.5715 133.444 9.75138 133.926 9.00938C134.408 8.26739 135.118 7.68551 136.059 7.25203C136.997 6.82245 138.113 6.60376 139.408 6.60376C141.321 6.60376 142.829 7.09191 143.933 8.06432C145.038 9.03672 145.668 10.3333 145.832 11.9461H141.511C141.439 11.4033 141.208 10.9698 140.813 10.6535C140.418 10.3372 139.905 10.177 139.268 10.177C138.721 10.177 138.303 10.2864 138.011 10.5012C137.719 10.716 137.574 11.0128 137.574 11.3877C137.574 11.8368 137.806 12.1765 138.273 12.3991C138.736 12.6256 139.461 12.8482 140.444 13.0747C141.576 13.3754 142.495 13.6683 143.204 13.9612C143.914 14.2541 144.541 14.7188 145.076 15.3671C145.615 16.0154 145.892 16.8823 145.911 17.968C145.911 18.8857 145.661 19.7058 145.16 20.4283C144.659 21.1508 143.937 21.717 142.999 22.131C142.062 22.541 140.972 22.748 139.734 22.748C138.406 22.748 137.221 22.5137 136.181 22.045Z" fill="#131313"/>
<path d="M158.102 22.5215L153.455 15.9412V22.5215H148.781V1.71442H153.455V13.2153L158.075 6.83418H163.842L157.502 14.7071L163.899 22.5254H158.105L158.102 22.5215Z" fill="#131313"/>
<path d="M181.256 6.83417L171.689 29.9766H166.658L170.159 21.9904L163.955 6.83417H169.175L172.702 16.648L176.203 6.83417H181.26H181.256Z" fill="#131313"/>
<path d="M181.897 22.0021C181.377 21.5061 181.119 20.893 181.119 20.1588C181.119 19.4246 181.377 18.7802 181.897 18.2765C182.418 17.7688 183.086 17.5189 183.906 17.5189C184.726 17.5189 185.367 17.7727 185.888 18.2765C186.408 18.7842 186.666 19.409 186.666 20.1588C186.666 20.9086 186.408 21.5022 185.888 22.0021C185.367 22.498 184.707 22.748 183.906 22.748C183.105 22.748 182.418 22.498 181.897 22.0021Z" fill="#6553C9"/>
</g>
<defs>
<clipPath id="clip0_1070_211">
<rect width="186.667" height="30" fill="white"/>
</clipPath>
</defs>
</svg>
