<?xml version="1.0" encoding="UTF-8"?>
<svg id="Layer_2" data-name="Layer 2" xmlns="http://www.w3.org/2000/svg" viewBox="0 0 491.68 76.82">
  <defs>
    <style>
      .cls-1 {
        fill: #fff;
        stroke-width: 0px;
      }
    </style>
  </defs>
  <g id="Layer_1-2" data-name="Layer 1">
    <path class="cls-1" d="m63.18,21.6c2.95,3.02,4.43,7.22,4.43,12.6v23.47h-12.24v-21.82c0-2.59-.68-4.6-2.05-6.01-1.37-1.42-3.25-2.12-5.65-2.12s-4.28.71-5.65,2.12c-1.37,1.42-2.05,3.42-2.05,6.01v21.82h-12.24v-21.82c0-2.59-.68-4.6-2.05-6.01-1.37-1.42-3.25-2.12-5.65-2.12s-4.28.71-5.65,2.12c-1.37,1.42-2.05,3.42-2.05,6.01v21.82H0V17.5h12.31v5.04c1.25-1.68,2.88-3.01,4.9-4,2.02-.98,4.3-1.48,6.84-1.48,3.02,0,5.72.65,8.1,1.94s4.24,3.14,5.58,5.54c1.39-2.21,3.29-4.01,5.69-5.4,2.4-1.39,5.02-2.09,7.85-2.09,4.99,0,8.96,1.51,11.92,4.54Z"/>
    <path class="cls-1" d="m88.56,4.39v53.28h-12.31V4.39h12.31Z"/>
    <path class="cls-1" d="m97.38,26.64c1.56-3.12,3.68-5.52,6.37-7.2,2.69-1.68,5.69-2.52,9-2.52,2.83,0,5.32.58,7.45,1.73,2.13,1.15,3.78,2.66,4.93,4.54v-5.69h12.31v40.18h-12.31v-5.69c-1.2,1.87-2.87,3.38-5,4.54-2.14,1.15-4.62,1.73-7.45,1.73-3.26,0-6.24-.85-8.93-2.56-2.69-1.7-4.81-4.13-6.37-7.27-1.56-3.14-2.34-6.78-2.34-10.91s.78-7.75,2.34-10.87Zm25.2,3.67c-1.71-1.78-3.78-2.66-6.23-2.66s-4.52.88-6.23,2.63c-1.71,1.75-2.56,4.17-2.56,7.24s.85,5.51,2.56,7.31c1.7,1.8,3.78,2.7,6.23,2.7s4.52-.89,6.23-2.66c1.7-1.78,2.56-4.2,2.56-7.27s-.85-5.5-2.56-7.27Z"/>
    <path class="cls-1" d="m146.27,26.64c1.56-3.12,3.68-5.52,6.37-7.2,2.69-1.68,5.69-2.52,9-2.52,2.64,0,5.05.55,7.24,1.66,2.18,1.11,3.9,2.59,5.15,4.46V4.39h12.31v53.28h-12.31v-5.76c-1.15,1.92-2.8,3.46-4.93,4.61-2.14,1.15-4.62,1.73-7.45,1.73-3.31,0-6.31-.85-9-2.56-2.69-1.7-4.81-4.13-6.37-7.27-1.56-3.14-2.34-6.78-2.34-10.91s.78-7.75,2.34-10.87Zm25.2,3.67c-1.71-1.78-3.78-2.66-6.23-2.66s-4.52.88-6.23,2.63c-1.71,1.75-2.56,4.17-2.56,7.24s.85,5.51,2.56,7.31c1.7,1.8,3.78,2.7,6.23,2.7s4.52-.89,6.23-2.66c1.7-1.78,2.56-4.2,2.56-7.27s-.85-5.5-2.56-7.27Z"/>
    <path class="cls-1" d="m232.92,40.54h-27.86c.19,2.5,1,4.41,2.41,5.72,1.42,1.32,3.16,1.98,5.22,1.98,3.07,0,5.21-1.3,6.41-3.89h13.1c-.67,2.64-1.88,5.02-3.64,7.13-1.75,2.11-3.95,3.77-6.59,4.97-2.64,1.2-5.59,1.8-8.86,1.8-3.94,0-7.44-.84-10.51-2.52-3.07-1.68-5.47-4.08-7.2-7.2-1.73-3.12-2.59-6.77-2.59-10.94s.85-7.82,2.56-10.94c1.7-3.12,4.09-5.52,7.16-7.2,3.07-1.68,6.6-2.52,10.58-2.52s7.34.82,10.37,2.45c3.02,1.63,5.39,3.96,7.09,6.98s2.56,6.55,2.56,10.58c0,1.15-.07,2.35-.22,3.6Zm-12.38-6.84c0-2.11-.72-3.79-2.16-5.04-1.44-1.25-3.24-1.87-5.4-1.87s-3.8.6-5.22,1.8c-1.42,1.2-2.29,2.9-2.63,5.11h15.41Z"/>
    <path class="cls-1" d="m245.73,13.32c2.11,0,3.85-.64,5.22-1.91s2.05-2.84,2.05-4.72-.68-3.52-2.05-4.79c-1.37-1.27-3.11-1.91-5.22-1.91s-3.92.64-5.29,1.91c-1.37,1.27-2.05,2.87-2.05,4.79s.68,3.45,2.05,4.72,3.13,1.91,5.29,1.91Z"/>
    <path class="cls-1" d="m239.61,63c0,1.2-.29,2.06-.86,2.59-.58.53-1.54.79-2.88.79h-2.95v10.44h4.82c4.46,0,7.94-1.09,10.44-3.28,2.5-2.18,3.74-5.75,3.74-10.69V17.5h-12.31v45.5Z"/>
    <path class="cls-1" d="m268.45,55.73c-3.14-1.68-5.62-4.08-7.42-7.2-1.8-3.12-2.7-6.77-2.7-10.94s.91-7.76,2.74-10.91c1.82-3.14,4.32-5.56,7.49-7.24,3.17-1.68,6.72-2.52,10.66-2.52s7.49.84,10.66,2.52c3.17,1.68,5.66,4.09,7.49,7.24,1.82,3.14,2.74,6.78,2.74,10.91s-.92,7.76-2.77,10.91c-1.85,3.14-4.37,5.56-7.56,7.24-3.19,1.68-6.76,2.52-10.69,2.52s-7.48-.84-10.62-2.52Zm16.63-10.73c1.66-1.73,2.48-4.2,2.48-7.42s-.8-5.69-2.41-7.42c-1.61-1.73-3.59-2.59-5.94-2.59s-4.39.85-5.98,2.56c-1.58,1.7-2.38,4.19-2.38,7.45s.78,5.69,2.34,7.42c1.56,1.73,3.52,2.59,5.87,2.59s4.36-.86,6.01-2.59Z"/>
    <path class="cls-1" d="m324.72,46.15l8.71-28.66h13.1l-14.26,40.18h-15.19l-14.26-40.18h13.18l8.71,28.66Z"/>
    <path class="cls-1" d="m358.7,56.45c-2.74-1.2-4.9-2.84-6.48-4.93s-2.47-4.43-2.66-7.02h12.17c.14,1.39.79,2.52,1.94,3.38,1.15.86,2.57,1.3,4.25,1.3,1.54,0,2.72-.3,3.56-.9.84-.6,1.26-1.38,1.26-2.34,0-1.15-.6-2-1.8-2.56-1.2-.55-3.14-1.16-5.83-1.84-2.88-.67-5.28-1.38-7.2-2.12s-3.58-1.92-4.97-3.53c-1.39-1.61-2.09-3.78-2.09-6.52,0-2.3.64-4.4,1.91-6.3,1.27-1.9,3.14-3.39,5.62-4.5,2.47-1.1,5.41-1.66,8.82-1.66,5.04,0,9.01,1.25,11.92,3.74s4.57,5.81,5,9.94h-11.38c-.19-1.39-.8-2.5-1.84-3.31s-2.39-1.22-4.07-1.22c-1.44,0-2.54.28-3.31.83-.77.55-1.15,1.31-1.15,2.27,0,1.15.61,2.02,1.84,2.59,1.22.58,3.13,1.15,5.72,1.73,2.98.77,5.4,1.52,7.27,2.27s3.52,1.94,4.93,3.6c1.42,1.66,2.15,3.88,2.2,6.66,0,2.35-.66,4.45-1.98,6.3-1.32,1.85-3.22,3.3-5.69,4.36-2.47,1.05-5.34,1.58-8.6,1.58-3.5,0-6.62-.6-9.36-1.8Z"/>
    <path class="cls-1" d="m416.44,57.67l-12.24-16.85v16.85h-12.31V4.39h12.31v29.45l12.17-16.34h15.19l-16.7,20.16,16.85,20.02h-15.26Z"/>
    <path class="cls-1" d="m477.43,17.5l-25.2,59.26h-13.25l9.22-20.45-16.34-38.81h13.75l9.29,25.13,9.22-25.13h13.32Z"/>
    <path class="cls-1" d="m479.12,56.34c-1.37-1.27-2.05-2.84-2.05-4.72s.68-3.53,2.05-4.82c1.37-1.3,3.13-1.94,5.29-1.94s3.85.65,5.22,1.94c1.37,1.3,2.05,2.9,2.05,4.82s-.68,3.44-2.05,4.72c-1.37,1.27-3.11,1.91-5.22,1.91s-3.92-.64-5.29-1.91Z"/>
  </g>
</svg>