<svg width="98" height="116" viewBox="0 0 98 116" fill="none" xmlns="http://www.w3.org/2000/svg">
<g clip-path="url(#clip0_1070_64)">
<circle cx="3" cy="3" r="3" transform="matrix(1 0 0 -1 66 71.8086)" fill="#6553C9" fill-opacity="0.8"/>
<circle cx="3" cy="3" r="3" transform="matrix(1 0 0 -1 66 93.8086)" fill="#6553C9" fill-opacity="0.8"/>
<circle cx="3" cy="3" r="3" transform="matrix(1 0 0 -1 66 115.809)" fill="#6553C9" fill-opacity="0.8"/>
<circle cx="3" cy="3" r="3" transform="matrix(1 0 0 -1 88 71.8086)" fill="#6553C9" fill-opacity="0.8"/>
<circle cx="3" cy="3" r="3" transform="matrix(1 0 0 -1 88 93.8086)" fill="#6553C9" fill-opacity="0.8"/>
<circle cx="3" cy="3" r="3" transform="matrix(1 0 0 -1 88 115.809)" fill="#6553C9" fill-opacity="0.8"/>
<circle cx="3" cy="3" r="3" transform="matrix(1 0 0 -1 0 71.8086)" fill="#6553C9" fill-opacity="0.8"/>
<circle cx="3" cy="3" r="3" transform="matrix(1 0 0 -1 0 93.8086)" fill="#6553C9" fill-opacity="0.8"/>
<circle cx="3" cy="3" r="3" transform="matrix(1 0 0 -1 0 115.809)" fill="#6553C9" fill-opacity="0.8"/>
<circle cx="3" cy="3" r="3" transform="matrix(1 0 0 -1 22 71.8086)" fill="#6553C9" fill-opacity="0.8"/>
<circle cx="3" cy="3" r="3" transform="matrix(1 0 0 -1 22 93.8086)" fill="#6553C9" fill-opacity="0.8"/>
<circle cx="3" cy="3" r="3" transform="matrix(1 0 0 -1 22 115.809)" fill="#6553C9" fill-opacity="0.8"/>
<circle cx="3" cy="3" r="3" transform="matrix(1 0 0 -1 44 71.8086)" fill="#6553C9" fill-opacity="0.8"/>
<circle cx="3" cy="3" r="3" transform="matrix(1 0 0 -1 44 93.8086)" fill="#6553C9" fill-opacity="0.8"/>
<circle cx="3" cy="3" r="3" transform="matrix(1 0 0 -1 44 115.809)" fill="#6553C9" fill-opacity="0.8"/>
<circle cx="3" cy="3" r="3" transform="matrix(1 0 0 -1 66 5.80859)" fill="#6553C9" fill-opacity="0.8"/>
<circle cx="3" cy="3" r="3" transform="matrix(1 0 0 -1 66 27.8086)" fill="#6553C9" fill-opacity="0.8"/>
<circle cx="3" cy="3" r="3" transform="matrix(1 0 0 -1 66 49.8086)" fill="#6553C9" fill-opacity="0.8"/>
<circle cx="3" cy="3" r="3" transform="matrix(1 0 0 -1 88 5.80859)" fill="#6553C9" fill-opacity="0.8"/>
<circle cx="3" cy="3" r="3" transform="matrix(1 0 0 -1 88 27.8086)" fill="#6553C9" fill-opacity="0.8"/>
<circle cx="3" cy="3" r="3" transform="matrix(1 0 0 -1 88 49.8086)" fill="#6553C9" fill-opacity="0.8"/>
<circle cx="3" cy="3" r="3" transform="matrix(1 0 0 -1 0 27.8086)" fill="#6553C9" fill-opacity="0.8"/>
<circle cx="3" cy="3" r="3" transform="matrix(1 0 0 -1 0 49.8086)" fill="#6553C9" fill-opacity="0.8"/>
<circle cx="3" cy="3" r="3" transform="matrix(1 0 0 -1 22 5.80859)" fill="#6553C9" fill-opacity="0.8"/>
<circle cx="3" cy="3" r="3" transform="matrix(1 0 0 -1 22 27.8086)" fill="#6553C9" fill-opacity="0.8"/>
<circle cx="3" cy="3" r="3" transform="matrix(1 0 0 -1 22 49.8086)" fill="#6553C9" fill-opacity="0.8"/>
<circle cx="3" cy="3" r="3" transform="matrix(1 0 0 -1 44 5.80859)" fill="#6553C9" fill-opacity="0.8"/>
<circle cx="3" cy="3" r="3" transform="matrix(1 0 0 -1 44 27.8086)" fill="#6553C9" fill-opacity="0.8"/>
<circle cx="3" cy="3" r="3" transform="matrix(1 0 0 -1 44 49.8086)" fill="#6553C9" fill-opacity="0.8"/>
<circle cx="3" cy="3" r="3" transform="matrix(1 0 0 -1 0 5.80859)" fill="#6553C9" fill-opacity="0.8"/>
</g>
<defs>
<clipPath id="clip0_1070_64">
<rect width="98" height="116" fill="white"/>
</clipPath>
</defs>
</svg>
