<svg width="56" height="116" viewBox="0 0 56 116" fill="none" xmlns="http://www.w3.org/2000/svg">
<g clip-path="url(#clip0_1070_137)">
<circle cx="3" cy="3" r="3" transform="matrix(1 0 0 -1 24 71.8086)" fill="#6553C9" fill-opacity="0.8"/>
<circle cx="3" cy="3" r="3" transform="matrix(1 0 0 -1 24 93.8086)" fill="#6553C9" fill-opacity="0.8"/>
<circle cx="3" cy="3" r="3" transform="matrix(1 0 0 -1 24 115.809)" fill="#6553C9" fill-opacity="0.8"/>
<circle cx="3" cy="3" r="3" transform="matrix(1 0 0 -1 46 71.8086)" fill="#6553C9" fill-opacity="0.8"/>
<circle cx="3" cy="3" r="3" transform="matrix(1 0 0 -1 46 93.8086)" fill="#6553C9" fill-opacity="0.8"/>
<circle cx="3" cy="3" r="3" transform="matrix(1 0 0 -1 46 115.809)" fill="#6553C9" fill-opacity="0.8"/>
<circle cx="3" cy="3" r="3" transform="matrix(1 0 0 -1 2 71.8086)" fill="#6553C9" fill-opacity="0.8"/>
<circle cx="3" cy="3" r="3" transform="matrix(1 0 0 -1 2 93.8086)" fill="#6553C9" fill-opacity="0.8"/>
<circle cx="3" cy="3" r="3" transform="matrix(1 0 0 -1 2 115.809)" fill="#6553C9" fill-opacity="0.8"/>
<circle cx="3" cy="3" r="3" transform="matrix(1 0 0 -1 24 5.80859)" fill="#6553C9" fill-opacity="0.8"/>
<circle cx="3" cy="3" r="3" transform="matrix(1 0 0 -1 24 27.8086)" fill="#6553C9" fill-opacity="0.8"/>
<circle cx="3" cy="3" r="3" transform="matrix(1 0 0 -1 24 49.8086)" fill="#6553C9" fill-opacity="0.8"/>
<circle cx="3" cy="3" r="3" transform="matrix(1 0 0 -1 46 5.80859)" fill="#6553C9" fill-opacity="0.8"/>
<circle cx="3" cy="3" r="3" transform="matrix(1 0 0 -1 46 27.8086)" fill="#6553C9" fill-opacity="0.8"/>
<circle cx="3" cy="3" r="3" transform="matrix(1 0 0 -1 46 49.8086)" fill="#6553C9" fill-opacity="0.8"/>
<circle cx="3" cy="3" r="3" transform="matrix(1 0 0 -1 2 5.80859)" fill="#6553C9" fill-opacity="0.8"/>
<circle cx="3" cy="3" r="3" transform="matrix(1 0 0 -1 2 27.8086)" fill="#6553C9" fill-opacity="0.8"/>
<circle cx="3" cy="3" r="3" transform="matrix(1 0 0 -1 2 49.8086)" fill="#6553C9" fill-opacity="0.8"/>
</g>
<defs>
<clipPath id="clip0_1070_137">
<rect width="56" height="116" fill="white"/>
</clipPath>
</defs>
</svg>
