<svg width="112" height="25" viewBox="0 0 112 25" fill="none" xmlns="http://www.w3.org/2000/svg">
<path d="M12.0003 17.77L16.1503 20.28C16.9103 20.74 17.8403 20.06 17.6403 19.2L16.5403 14.48L20.2103 11.3C20.8803 10.72 20.5203 9.62 19.6403 9.55L14.8103 9.14L12.9203 4.68C12.5803 3.87 11.4203 3.87 11.0803 4.68L9.19032 9.13L4.36032 9.54C3.48032 9.61 3.12032 10.71 3.79032 11.29L7.46032 14.47L6.36032 19.19C6.16032 20.05 7.09032 20.73 7.85032 20.27L12.0003 17.77Z" fill="#E6C200"/>
<path d="M34.0003 17.77L38.1503 20.28C38.9103 20.74 39.8403 20.06 39.6403 19.2L38.5403 14.48L42.2103 11.3C42.8803 10.72 42.5203 9.62 41.6403 9.55L36.8103 9.14L34.9203 4.68C34.5803 3.87 33.4203 3.87 33.0803 4.68L31.1903 9.13L26.3603 9.54C25.4803 9.61 25.1203 10.71 25.7903 11.29L29.4603 14.47L28.3603 19.19C28.1603 20.05 29.0903 20.73 29.8503 20.27L34.0003 17.77Z" fill="#E6C200"/>
<path d="M56.0003 17.77L60.1503 20.28C60.9103 20.74 61.8403 20.06 61.6403 19.2L60.5403 14.48L64.2103 11.3C64.8803 10.72 64.5203 9.62 63.6403 9.55L58.8103 9.14L56.9203 4.68C56.5803 3.87 55.4203 3.87 55.0803 4.68L53.1903 9.13L48.3603 9.54C47.4803 9.61 47.1203 10.71 47.7903 11.29L51.4603 14.47L50.3603 19.19C50.1603 20.05 51.0903 20.73 51.8503 20.27L56.0003 17.77Z" fill="#E6C200"/>
<path d="M78.0003 17.77L82.1503 20.28C82.9103 20.74 83.8403 20.06 83.6403 19.2L82.5403 14.48L86.2103 11.3C86.8803 10.72 86.5203 9.62 85.6403 9.55L80.8103 9.14L78.9203 4.68C78.5803 3.87 77.4203 3.87 77.0803 4.68L75.1903 9.13L70.3603 9.54C69.4803 9.61 69.1203 10.71 69.7903 11.29L73.4603 14.47L72.3603 19.19C72.1603 20.05 73.0903 20.73 73.8503 20.27L78.0003 17.77Z" fill="#E6C200"/>
<path d="M100 17.77L104.15 20.28C104.91 20.74 105.84 20.06 105.64 19.2L104.54 14.48L108.21 11.3C108.88 10.72 108.52 9.62 107.64 9.55L102.81 9.14L100.92 4.68C100.58 3.87 99.4203 3.87 99.0803 4.68L97.1903 9.13L92.3603 9.54C91.4803 9.61 91.1203 10.71 91.7903 11.29L95.4603 14.47L94.3603 19.19C94.1603 20.05 95.0903 20.73 95.8503 20.27L100 17.77Z" fill="#E6C200"/>
</svg>
